<mxfile host="Electron" agent="Mozilla/5.0 (Windows NT 10.0; Win64; x64) AppleWebKit/537.36 (KHTML, like Gecko) draw.io/28.1.2 Chrome/138.0.7204.243 Electron/37.4.0 Safari/537.36" version="28.1.2">
  <diagram name="2025-09-25_lab001" id="fioQnwjPBGkdQ6WUWb9a">
    <mxGraphModel dx="977" dy="825" grid="1" gridSize="10" guides="1" tooltips="1" connect="1" arrows="1" fold="1" page="1" pageScale="1" pageWidth="827" pageHeight="1169" math="0" shadow="0">
      <root>
        <mxCell id="0" />
        <mxCell id="1" parent="0" />
        <mxCell id="lBBcbk_gZpNIXctQsaNf-2" style="rounded=0;orthogonalLoop=1;jettySize=auto;html=1;endArrow=none;endFill=0;strokeWidth=2;" edge="1" parent="1" source="uw4xi4_IMj6UpClvn523-1" target="lBBcbk_gZpNIXctQsaNf-12">
          <mxGeometry relative="1" as="geometry" />
        </mxCell>
        <mxCell id="uw4xi4_IMj6UpClvn523-1" value="pc001" style="fontColor=#0066CC;verticalAlign=bottom;verticalLabelPosition=top;labelPosition=right;align=left;html=1;outlineConnect=0;fillColor=#CCCCCC;strokeColor=#6881B3;gradientColor=none;gradientDirection=north;strokeWidth=2;shape=mxgraph.networks.pc;" parent="1" vertex="1">
          <mxGeometry x="190" y="60" width="100" height="70" as="geometry" />
        </mxCell>
        <mxCell id="lBBcbk_gZpNIXctQsaNf-17" style="rounded=0;orthogonalLoop=1;jettySize=auto;html=1;strokeWidth=2;endArrow=none;endFill=0;" edge="1" parent="1" source="lBBcbk_gZpNIXctQsaNf-1" target="lBBcbk_gZpNIXctQsaNf-18">
          <mxGeometry relative="1" as="geometry" />
        </mxCell>
        <mxCell id="lBBcbk_gZpNIXctQsaNf-1" value="ro001" style="image;html=1;image=img/lib/clip_art/networking/Router_Icon_128x128.png;labelPosition=right;verticalLabelPosition=top;align=left;verticalAlign=bottom;" vertex="1" parent="1">
          <mxGeometry x="300" y="350" width="80" height="80" as="geometry" />
        </mxCell>
        <mxCell id="lBBcbk_gZpNIXctQsaNf-12" value="192.168.0.0/24" style="html=1;outlineConnect=0;fillColor=#dae8fc;strokeColor=#6c8ebf;gradientDirection=north;strokeWidth=2;shape=mxgraph.networks.bus;gradientColor=none;gradientDirection=north;perimeter=backbonePerimeter;backboneSize=20;" vertex="1" parent="1">
          <mxGeometry x="214" y="220" width="200" height="20" as="geometry" />
        </mxCell>
        <mxCell id="lBBcbk_gZpNIXctQsaNf-13" style="rounded=0;orthogonalLoop=1;jettySize=auto;html=1;endArrow=none;endFill=0;strokeWidth=2;" edge="1" parent="1" source="lBBcbk_gZpNIXctQsaNf-1" target="lBBcbk_gZpNIXctQsaNf-12">
          <mxGeometry relative="1" as="geometry">
            <mxPoint x="260" y="200" as="sourcePoint" />
            <mxPoint x="296" y="270" as="targetPoint" />
          </mxGeometry>
        </mxCell>
        <mxCell id="lBBcbk_gZpNIXctQsaNf-14" value=".101" style="text;strokeColor=none;align=left;fillColor=none;html=1;verticalAlign=middle;whiteSpace=wrap;rounded=0;" vertex="1" parent="1">
          <mxGeometry x="240" y="130" width="60" height="30" as="geometry" />
        </mxCell>
        <mxCell id="lBBcbk_gZpNIXctQsaNf-15" value=".1" style="text;strokeColor=none;align=right;fillColor=none;html=1;verticalAlign=middle;whiteSpace=wrap;rounded=0;" vertex="1" parent="1">
          <mxGeometry x="280" y="330" width="60" height="30" as="geometry" />
        </mxCell>
        <mxCell id="lBBcbk_gZpNIXctQsaNf-16" value="ro002" style="image;html=1;image=img/lib/clip_art/networking/Router_Icon_128x128.png;labelPosition=right;verticalLabelPosition=top;align=left;verticalAlign=bottom;" vertex="1" parent="1">
          <mxGeometry x="434" y="585" width="80" height="80" as="geometry" />
        </mxCell>
        <mxCell id="lBBcbk_gZpNIXctQsaNf-18" value="192.168.1.0/24" style="html=1;outlineConnect=0;fillColor=#dae8fc;strokeColor=#6c8ebf;gradientDirection=north;strokeWidth=2;shape=mxgraph.networks.bus;gradientColor=none;gradientDirection=north;perimeter=backbonePerimeter;backboneSize=20;" vertex="1" parent="1">
          <mxGeometry x="314" y="490" width="200" height="20" as="geometry" />
        </mxCell>
        <mxCell id="lBBcbk_gZpNIXctQsaNf-19" style="rounded=0;orthogonalLoop=1;jettySize=auto;html=1;strokeWidth=2;endArrow=none;endFill=0;" edge="1" parent="1" source="lBBcbk_gZpNIXctQsaNf-16" target="lBBcbk_gZpNIXctQsaNf-18">
          <mxGeometry relative="1" as="geometry">
            <mxPoint x="410" y="450" as="sourcePoint" />
            <mxPoint x="410" y="490" as="targetPoint" />
          </mxGeometry>
        </mxCell>
        <mxCell id="lBBcbk_gZpNIXctQsaNf-20" value=".10" style="text;strokeColor=none;align=right;fillColor=none;html=1;verticalAlign=middle;whiteSpace=wrap;rounded=0;" vertex="1" parent="1">
          <mxGeometry x="280" y="420" width="60" height="30" as="geometry" />
        </mxCell>
        <mxCell id="lBBcbk_gZpNIXctQsaNf-21" value=".1" style="text;strokeColor=none;align=right;fillColor=none;html=1;verticalAlign=middle;whiteSpace=wrap;rounded=0;" vertex="1" parent="1">
          <mxGeometry x="414" y="560" width="60" height="30" as="geometry" />
        </mxCell>
      </root>
    </mxGraphModel>
  </diagram>
</mxfile>
